# xmcd CD database file
#
# Track frame offsets:
#	150
#	14722
#	27505
#	44270
#	58295
#	72857
#	89802
#	105115
#	119195
#	135155
#	151597
#	168957
#	184722
#	198430
#	214697
#	229285
#	242457
#	257165
#	271342
#	285635
#	311682
#
# Disc length: 4795 seconds
#
# Revision: 4
# Processed by: cddbd v1.5.1PL2 Copyright (c) Steve Scherf et al.
# Submitted via: CDex 1.51
#
DISCID=2e12b915
DTITLE=sweetbox - THE GREATEST HITS
DYEAR=2005
DGENRE=R&B
TTITLE0=Everything's Gonna Be Alright -Reborn-
TTITLE1=Life Is Cool
TTITLE2=For The Lonely (Even Sweeter Version)
TTITLE3=Waterfall
TTITLE4=After The Lights
TTITLE5=Killing Me DJ
TTITLE6=Hate Without Frontiers
TTITLE7=Read My Mind
TTITLE8=Don't Wanna Kill You
TTITLE9=Piano In The Dark
TTITLE10=Every Time (All Grown Up Version)
TTITLE11=Crown Of Thorns
TTITLE12=Utopia
TTITLE13=Lighter Shade Of Blue (European Version)
TTITLE14=On The Radio
TTITLE15=Somewhere
TTITLE16=Chyna Girl
TTITLE17=Cinderella (Electric Spice Mix)
TTITLE18=Everything's Gonna Be Alright (Classic Mix)
TTITLE19=Unforgiven (Unreleased Demo Version)
TTITLE20=Data
EXTD=YEAR: 2005
EXTT0=
EXTT1=
EXTT2=
EXTT3=
EXTT4=
EXTT5=
EXTT6=
EXTT7=
EXTT8=
EXTT9=
EXTT10=
EXTT11=
EXTT12=
EXTT13=
EXTT14=
EXTT15=
EXTT16=
EXTT17=
EXTT18=
EXTT19=
EXTT20=
PLAYORDER=
